<mxfile host="app.diagrams.net" modified="2023-03-19T03:46:17.854Z" agent="5.0 (Windows)" etag="aws9mbWkp73h3zQg2FH5" version="21.0.8" type="github">
  <diagram name="Page-1" id="so0tWli6oCY0o6mID_-Y">
    <mxGraphModel dx="880" dy="436" grid="1" gridSize="10" guides="1" tooltips="1" connect="1" arrows="1" fold="1" page="1" pageScale="1" pageWidth="850" pageHeight="1100" math="0" shadow="0">
      <root>
        <mxCell id="0" />
        <mxCell id="1" parent="0" />
        <mxCell id="N2e_gxhlrQTR_hjahJRz-1" value="Hello" style="ellipse;whiteSpace=wrap;html=1;" vertex="1" parent="1">
          <mxGeometry x="360" y="190" width="120" height="80" as="geometry" />
        </mxCell>
      </root>
    </mxGraphModel>
  </diagram>
</mxfile>
